<svg width="42" height="43" viewBox="0 0 42 43" fill="none" xmlns="http://www.w3.org/2000/svg">
<rect y="0.328125" width="42" height="42" rx="4" fill="white"/>
<path d="M20.9991 16.5226C18.339 16.5226 16.1921 18.6694 16.1921 21.3296C16.1921 23.9898 18.339 26.1366 20.9991 26.1366C23.6593 26.1366 25.8062 23.9898 25.8062 21.3296C25.8062 18.6694 23.6593 16.5226 20.9991 16.5226ZM20.9991 24.4538C19.2788 24.4538 17.8749 23.0499 17.8749 21.3296C17.8749 19.6093 19.2788 18.2054 20.9991 18.2054C22.7194 18.2054 24.1234 19.6093 24.1234 21.3296C24.1234 23.0499 22.7194 24.4538 20.9991 24.4538ZM26.003 15.2054C25.3819 15.2054 24.8804 15.7069 24.8804 16.328C24.8804 16.9491 25.3819 17.4507 26.003 17.4507C26.6241 17.4507 27.1257 16.9515 27.1257 16.328C27.1259 16.1806 27.097 16.0345 27.0406 15.8982C26.9843 15.7619 26.9016 15.6381 26.7973 15.5338C26.693 15.4295 26.5692 15.3468 26.4329 15.2905C26.2966 15.2341 26.1505 15.2052 26.003 15.2054ZM30.3694 21.3296C30.3694 20.0359 30.3812 18.7538 30.3085 17.4624C30.2359 15.9624 29.8937 14.6312 28.7968 13.5343C27.6976 12.4351 26.3687 12.0952 24.8687 12.0226C23.5749 11.9499 22.2929 11.9616 21.0015 11.9616C19.7077 11.9616 18.4257 11.9499 17.1343 12.0226C15.6343 12.0952 14.303 12.4374 13.2062 13.5343C12.1069 14.6335 11.7671 15.9624 11.6944 17.4624C11.6218 18.7562 11.6335 20.0382 11.6335 21.3296C11.6335 22.621 11.6218 23.9054 11.6944 25.1968C11.7671 26.6968 12.1093 28.028 13.2062 29.1249C14.3054 30.2241 15.6343 30.564 17.1343 30.6366C18.428 30.7093 19.7101 30.6976 21.0015 30.6976C22.2952 30.6976 23.5773 30.7093 24.8687 30.6366C26.3687 30.564 27.6999 30.2218 28.7968 29.1249C29.896 28.0257 30.2359 26.6968 30.3085 25.1968C30.3835 23.9054 30.3694 22.6234 30.3694 21.3296ZM28.3069 26.8562C28.1359 27.2827 27.9296 27.6015 27.5991 27.9296C27.2687 28.2601 26.9523 28.4663 26.5257 28.6374C25.2929 29.1273 22.3655 29.0171 20.9991 29.0171C19.6327 29.0171 16.703 29.1273 15.4702 28.6398C15.0437 28.4687 14.7249 28.2624 14.3968 27.9319C14.0663 27.6015 13.8601 27.2851 13.689 26.8585C13.2015 25.6234 13.3116 22.696 13.3116 21.3296C13.3116 19.9632 13.2015 17.0335 13.689 15.8007C13.8601 15.3741 14.0663 15.0554 14.3968 14.7273C14.7273 14.3991 15.0437 14.1905 15.4702 14.0194C16.703 13.5319 19.6327 13.6421 20.9991 13.6421C22.3655 13.6421 25.2952 13.5319 26.528 14.0194C26.9546 14.1905 27.2734 14.3968 27.6015 14.7273C27.9319 15.0577 28.1382 15.3741 28.3093 15.8007C28.7968 17.0335 28.6866 19.9632 28.6866 21.3296C28.6866 22.696 28.7968 25.6234 28.3069 26.8562Z" fill="black"/>
</svg>
