<svg width="42" height="43" viewBox="0 0 42 43" fill="none" xmlns="http://www.w3.org/2000/svg">
<rect y="0.328125" width="42" height="42" rx="4" fill="white"/>
<path fill-rule="evenodd" clip-rule="evenodd" d="M30.7447 17.3449C30.6507 16.631 30.3781 15.9524 29.9521 15.3719C29.4242 14.8401 28.7082 14.5374 27.959 14.529C25.1793 14.3281 21.0012 14.3281 21.0012 14.3281C21.0012 14.3281 16.8251 14.3281 14.0413 14.529C13.2924 14.5376 12.5769 14.8404 12.0492 15.3719C11.6204 15.9513 11.3472 16.6309 11.2556 17.3459C11.1312 18.4151 11.0641 19.4903 11.0547 20.5666V22.0735C11.0641 23.1499 11.1312 24.225 11.2556 25.2943C11.35 26.0095 11.6213 26.6906 12.0432 27.2753C12.65 27.8138 13.4295 28.1162 14.2403 28.1272C15.8305 28.2789 21.0022 28.3281 21.0022 28.3281C21.0022 28.3281 25.1823 28.3281 27.962 28.1272C28.7117 28.1189 29.4281 27.8157 29.9561 27.2833C30.38 26.7015 30.6518 26.0229 30.7467 25.3093C30.8712 24.2401 30.9382 23.165 30.9476 22.0886V20.5656C30.9357 19.4893 30.868 18.4143 30.7447 17.3449ZM18.999 23.929V18.2832L24.4238 21.1152L18.999 23.929Z" fill="black"/>
</svg>
